<svg
 xmlns="http://www.w3.org/2000/svg"
 xmlns:xlink="http://www.w3.org/1999/xlink"
 
 viewBox="-80 -30 160 30"
 height="672px"
 width="600px"
>
    <defs>
        <g id="ikon">
        
            <path d="M-17.7 -41.7C-28.7 -44.8 -45.3 -54.3 -49.3 -64.0C-46.2 -75.7 -44.7 -85.3 -44.8 -92.7C-32.0 -97.2 -12.5 -93.2 13.7 -86.2C24.4 -90.8 31.4 -94.7 36.9 -92.2C40.5 -84.6 47.1 -75.4 53.7 -68.8C47.9 -55.9 -2.5 -43.0 -17.7 -41.7Z"
                fill="var(--lid-color,#ddd)" />
            
            <path d="M33.1 -57.5C30.5 -53.8 1.1 -42.6 -17.3 -42.0C-24.6 -43.4 -36.3 -48.3 -43.8 -55.4L-51.6 -1.6L-34.1 71.4L29.9 69.5C38.5 63.5 40.6 57.4 36.0 51.1L7.5 2.5L26.0 -29.9C50.6 -38.4 51.8 -50.8 33.1 -57.5Z"
                fill="var(--body-color,hsl(36,100%,50%))" />
            
            <path style="M-38.72 -40.7Q -22 -30 -10.5 -27.2Q 10 -22 20 -25L25 -30L 3 -33C -4 -34 -2 -42 4 -43.5C 10.7 -43.2 20.7 -41.1 31.1 -45.1C 35.7 -47.7 38.8 -44.6 39.4 -42.0C 41.3 -44.5 40.9 -53.5 36.0 -55.4Q 5.9 -43 -17 -42L -44 -51L-44 -46Z"
                fill="none"/>
                
            <path d="M13.5 -13.9C0.9 -12.1 -10.8 -14.9 -21.5 -22.1L-29.5 0.6L-13.4 44.8C-2.2 42.0 9.0 31.3 22.5 35.1L5.8 2.0L13.5 -13.9Z"
                paint-order="stroke"
                stroke-width="var(--label-outline,0)"
                stroke="var(--label-outline-color,var(--outline-color,#000))"
                fill="var(--label-color,#ddd)"/>
            
            <path style="visibility:var(--RX-visibility,visible);" d="M-3.0 14.2C-7.1 11.0 -11.4 7.9 -15.7 5.0L-6.1 24.8Q-11 26 -13.8 28L-25.3 -0.1L-19.8 -16.0C-15.0 -13.8 -6.3 -11.6 -3.7 -11.3C1.5 -10.6 -0.7 -6.4 -2.7 -0.1C-2.4 2.9 -4.6 4.3 -7.5 4.8L-7.5 4.8C-5.6 6.0 -3.6 7.3 -1.6 8.8C-0.9 6.0 -0.1 3.4 0.6 1.1L7.4 2.3C6.1 5.8 4.9 9.4 3.9 13.0C7.3 15.7 10.9 18.8 14.7 22.2C12.8 22.0 10.2 22.0 6.9 22.2C5.4 21.0 3.9 19.7 2.4 18.5C0.9 24.9 0.2 30.8 0.6 35.2C-1.0 35.5 -4.5 36.6 -7.3 38C-6.7 31.0 -4.9 22.3 -3.0 14.2ZM-11.8 3.1C-8.2 3.0 -7.6 1.6 -9.0 -0.1C-6.9 -3.9 -5.7 -7.0 -8.1 -7.3C-9.7 -7.5 -12.1 -8.1 -15.3 -8.9L-18.4 -0.6L-16.6 3.1L-11.8 3.1L-11.8 3.1Z"
                fill-rule="evenodd"
                fill="var(--RX-color,hsla(0,80%,20%,0.07))" />
                
            <path d="M-28.1 -69.0C -57 -83 -39 -110 13 -84.4ZM -17.7 -44.0L-17.7 -65.1C 5.4 -63.7 39.4 -85.3 33.1 -92.2L 55.0 -70.0Q 20.1 -42.0 -17.7 -44.0ZM 25 -30L 3 -33C -4 -34 -2 -42 4 -43.5C10.7 -43.2 20.7 -41.1 31.1 -45.1C35.7 -47.7 38.8 -44.6 39.4 -42.0Q 40.0 -33.0 25 -30ZM 8.6 59.2L-18.4 1.9C-19.4 1.7 -21.5 1.3 -24.9 -0.6C-19.8 0.1 -15.7 -1.0 -10.7 -1.0C-13.4 -1.2 -17.6 -2.5 -18.4 -2.9L-10.5 -27.2Q 10 -22 20 -25L7 2L30 50Z"
                fill="var(--key-light,none)"/>
                
            <path d="M-17.7 -44L-17.7 -65.1C5.4 -63.7 39.4 -85.3 33.1 -92.2C26.1 -91.9 19.0 -89.3 13.0 -84.4L-28.1 -69Q-36 -73 -39.2 -77.9L -44.5 -58.8Q-40 -48 -17.7 -44ZM-38.72 -40.7Q-43.8 -20.2 -45.8 -1.8Q-35.1 31.5 -25.1 70.0L -15 70L8.6 59.2L-18.4 1.9C-19.4 1.7 -21.5 1.3 -24.9 -0.6C-19.8 0.1 -15.7 -1.0 -10.7 -1.0C-13.4 -1.2 -17.6 -2.5 -18.4 -2.9L-10.5 -27.2Q 10 -22 20 -25L25 -30L 3 -33C -4 -34 -2 -42 4 -43.5C 10.7 -43.2 20.7 -41.1 31.1 -45.1C 35.7 -47.7 38.8 -44.6 39.4 -42.0C 41.3 -44.5 40.9 -53.5 36.0 -55.4Q 5.9 -43 -17 -42L -44 -51L-44 -46ZM -12 70H 24L 35 66V 50L8.6 59.2Z"
                fill="var(--fill-light,hsla(0,0%,0%,0.35))"/>

            <path d="M -45.0 -82.2L-39.2 -77.9L -44.5 -58.8L-44 -46L-38.7 -40.8Q-43.8 -20.2 -45.8 -1.8Q-35.1 31.5 -25.1 70.0L-32.0 70.0L-51.0 -1.8L -48.5 -58.8Z"
                fill="var(--back-light,hsla(0,0%,40%,0.5))"/>
                
            <path d="M-49.3 -97.6C-33.1 -102.5 -4.6 -93.6 13.7 -87.2C21.9 -90.7 34.5 -98.2 39.9 -95.4C40.2 -95.2 40.4 -94.9 40.6 -94.6C47.7 -83.4 54.4 -75.4 60.6 -70.6C58.1 -65.9 52.0 -61.5 44.1 -57.5C57.5 -42.4 50.5 -29.4 31.2 -27.9C24.6 -18.3 19.1 -9.1 14.8 -0.2C15.9 1.1 16.7 2.5 17.2 3.9C16.1 4.9 15.3 5.9 14.3 7.1C21.1 21.4 31.2 36.6 42.5 52.7C 46.1 55.8 41.1 74.5 19.5 74.5L -38.3 74.5C-43.0 45.4 -49.2 20.1 -56.7 -3.5C-56.6 -18.7 -54.7 -36.1 -50.9 -55.6C-53.9 -58.5 -56.3 -61.9 -57.9 -66.0C-54.5 -74.0 -49.4 -89.0 -49.3 -97.6ZM-41.8 -78.4C-38.1 -74.3 -33.3 -71.0 -28.1 -69.0Q-50.8 -88.3 -29.5 -90.5C-17.5 -91.7 -2.5 -89.9 13.0 -84.4C49.0 -101.3 23.0 -71.7 -6.2 -66.1C7.7 -68.4 25.5 -77.7 34.7 -85.4C38.9 -79.3 43.8 -73.9 48.7 -69.8C47.7 -65.3 14.4 -44.8 -17.7 -44.0C-30.7 -47.2 -44.3 -57.6 -46.0 -65.1C-44.5 -69.4 -42.9 -74.3 -41.8 -78.4ZM-39.6 -47.6C-44.2 -29.0 -47.0 -13.7 -48.2 -1.6C-41.7 17.9 -35.4 40.8 -29.1 67.2C-4.4 69.0 10.6 50.3 25.5 47.5L2.2 2.9C-4.3 1.2 -11.9 0.4 -20.4 0.6C-12.9 -0.6 -4.4 -1.2 3.7 -0.8C8.0 -11.5 13.0 -20.7 18.6 -28.4C12.0 -29.4 4.6 -31.3 -3.4 -34.5C26.6 -28.6 49.8 -36.0 34.6 -53.2C31.0 -51.7 27.2 -50.3 23.4 -49.1C25.0 -47.6 25.6 -45.8 25.7 -44.0C27.6 -44.2 29.4 -44.6 31.1 -45.1C21.5 -40.5 11.4 -41.1 4.2 -43.5C-6.0 -41.0 -14.5 -39.6 -17.7 -39.9C-25.6 -41.9 -33.1 -44.3 -39.6 -47.6ZM-1.7 67.7L24.0 67.3C33.5 67.1 36.2 56.5 25.4 56.1C18.4 55.9 7.5 66.0 -1.7 67.7Z"
                fill-rule="evenodd"
                fill="var(--outline-color,#000)"/>
        
        </g>
    </defs>
    
    <g>
        <title>
    #ikon :::

    --body-color : [color];
    --outline-color : [color];
    --lid-color : [color];
    --label-color : [color];
    --label-outline : [size];
    --label-outline-color: [color];
    --RX-color : [color];
    --RX-visibility : [visible];
    --key-light : [color];
    --fill-light: [color];
    --back-light : [color];
    

    ~queviva
        </title>
        
        <use xlink:href="#ikon" />
    </g>
</svg>